HIERARCHY
ROOT joint_Root
{
	OFFSET 0.0 0.0 0.0
	CHANNELS 6 Xposition Yposition Zposition Zrotation Xrotation Yrotation 
	JOINT Hips
	{
		OFFSET -17.1583 93.1646 452.98
		CHANNELS 6 Xposition Yposition Zposition Zrotation Xrotation Yrotation 
		JOINT Spine
		{
			OFFSET 15.7357 0.0 0.0
			CHANNELS 6 Xposition Yposition Zposition Zrotation Xrotation Yrotation 
			JOINT Chest
			{
				OFFSET 8.98455 -0.406207 0.0
				CHANNELS 6 Xposition Yposition Zposition Zrotation Xrotation Yrotation 
				JOINT Neck
				{
					OFFSET 16.3773 0.0 0.0
					CHANNELS 6 Xposition Yposition Zposition Zrotation Xrotation Yrotation 
					JOINT Head
					{
						OFFSET 6.45672 0.0 0.0
						CHANNELS 6 Xposition Yposition Zposition Zrotation Xrotation Yrotation 
						End Site
						{
							OFFSET 0.0 0.0 0.0
						}
					}
				}
				JOINT Shoulder_L
				{
					OFFSET 12.9942 -0.242716 4.98039
					CHANNELS 6 Xposition Yposition Zposition Zrotation Xrotation Yrotation 
					JOINT UpperArm_L
					{
						OFFSET 5.34809 0.0 0.0
						CHANNELS 6 Xposition Yposition Zposition Zrotation Xrotation Yrotation 
						JOINT LowerArm_L
						{
							OFFSET 24.3286 1.87007e-05 0.0
							CHANNELS 6 Xposition Yposition Zposition Zrotation Xrotation Yrotation 
							JOINT Hand_L
							{
								OFFSET 22.2916 0.0 0.0
								CHANNELS 6 Xposition Yposition Zposition Zrotation Xrotation Yrotation 
								End Site
								{
									OFFSET 0.0 0.0 0.0
								}
							}
						}
					}
				}
				JOINT Shoulder_R
				{
					OFFSET 12.9945 -0.242716 -4.98039
					CHANNELS 6 Xposition Yposition Zposition Zrotation Xrotation Yrotation 
					JOINT UpperArm_R
					{
						OFFSET -5.34813 0.0 0.0
						CHANNELS 6 Xposition Yposition Zposition Zrotation Xrotation Yrotation 
						JOINT LowerArm_R
						{
							OFFSET -24.3289 0.000322201 0.0
							CHANNELS 6 Xposition Yposition Zposition Zrotation Xrotation Yrotation 
							JOINT Hand_R
							{
								OFFSET -22.2915 -0.000108084 0.0
								CHANNELS 6 Xposition Yposition Zposition Zrotation Xrotation Yrotation 
								End Site
								{
									OFFSET 0.0 0.0 0.0
								}
							}
						}
					}
				}
			}
		}
		JOINT UpperLeg_L
		{
			OFFSET -2.19248 -6.46944 0.0
			CHANNELS 6 Xposition Yposition Zposition Zrotation Xrotation Yrotation 
			JOINT LowerLeg_L
			{
				OFFSET 39.0811 0.0 -1.23785e-05
				CHANNELS 6 Xposition Yposition Zposition Zrotation Xrotation Yrotation 
				JOINT Foot_L
				{
					OFFSET 40.9854 0.0 -1.26872e-05
					CHANNELS 6 Xposition Yposition Zposition Zrotation Xrotation Yrotation 
					JOINT Toes_L
					{
						OFFSET 11.7543 0.0 0.0
						CHANNELS 6 Xposition Yposition Zposition Zrotation Xrotation Yrotation 
						End Site
						{
							OFFSET 0.0 0.0 0.0
						}
					}
				}
			}
		}
		JOINT UpperLeg_R
		{
			OFFSET -2.19251 6.46944 0.0
			CHANNELS 6 Xposition Yposition Zposition Zrotation Xrotation Yrotation 
			JOINT LowerLeg_R
			{
				OFFSET -39.0811 -0.00228153 -0.0401928
				CHANNELS 6 Xposition Yposition Zposition Zrotation Xrotation Yrotation 
				JOINT Foot_R
				{
					OFFSET -40.9854 0.0 0.0
					CHANNELS 6 Xposition Yposition Zposition Zrotation Xrotation Yrotation 
					JOINT Toes_R
					{
						OFFSET -11.7543 0.0 0.0
						CHANNELS 6 Xposition Yposition Zposition Zrotation Xrotation Yrotation 
						End Site
						{
							OFFSET 0.0 0.0 0.0
						}
					}
				}
			}
		}
	}
}
MOTION
Frames:	4
Frame Time:	0.0333333
0.000000 0.000000 0.000000 0.000000 0.000000 -0.000000 -0.427560 92.928300 0.410659 87.424200 1.004960 1.214520 15.735700 0.000005 -0.000001 68.316900 87.066700 -66.166800 8.984550 -0.406207 -0.000000 -2.267460 -2.355060 4.253700 16.377300 -0.000001 -0.000001 4.154720 1.886650 -1.001060 6.456720 -0.000001 -0.000000 0.971099 1.960270 -2.041500 12.994200 -0.242716 4.980390 -92.679000 7.866880 -71.126600 5.348090 -0.000007 -0.000001 -74.363000 6.245780 0.931356 24.328600 0.000019 0.000005 11.791400 24.558200 -26.669100 22.291600 -0.000001 0.000005 -0.505502 4.942780 8.513270 12.994500 -0.242716 -4.980390 88.239500 5.237600 -71.391200 -5.348130 -0.000001 -0.000004 -67.813900 5.763400 -2.417570 -24.328900 0.000322 -0.000009 0.939439 2.236030 -22.817300 -22.291500 -0.000108 -0.000004 7.671160 5.228550 1.993470 -2.192480 -6.469440 -0.000000 -176.639000 0.563244 -1.286030 39.081100 -0.000007 -0.000012 0.176766 -0.530501 18.428700 40.985400 -0.000006 -0.000013 3.113590 11.628100 -71.947500 11.754300 -0.000000 0.000003 -0.000190 0.170763 -9.650590 -2.192510 6.469440 -0.000001 -176.014000 7.195790 -177.565000 -39.081100 -0.002282 -0.040193 0.020935 -0.081799 12.142600 -40.985400 0.000008 0.000006 -1.427900 2.963200 -68.589500 -11.754300 -0.000006 -0.000006 -0.010469 0.274780 -5.408820
0.000000 0.000000 0.000000 0.000000 0.000000 -0.000000 -0.479203 92.932200 0.372528 87.423800 0.984185 1.095080 15.735700 0.000005 -0.000001 67.959300 87.034800 -65.779500 8.984550 -0.406207 -0.000000 -2.220160 -2.414680 4.312850 16.377300 -0.000001 -0.000001 3.829760 1.770880 -0.688786 6.456720 -0.000001 -0.000000 0.285045 1.962970 -1.453880 12.994200 -0.242716 4.980390 -92.695900 7.937200 -71.170700 5.348090 -0.000007 -0.000001 -74.064500 4.142220 0.941797 24.328600 0.000019 0.000005 11.495800 23.349400 -27.164500 22.291600 -0.000001 0.000005 -0.584543 4.914730 9.083260 12.994500 -0.242716 -4.980390 88.225600 5.270110 -71.362500 -5.348130 -0.000001 -0.000004 -67.390600 2.927250 -2.104590 -24.328900 0.000322 -0.000009 1.149440 2.450410 -25.158100 -22.291500 -0.000108 -0.000004 7.436630 5.208260 2.511420 -2.192480 -6.469440 -0.000000 -176.602000 0.548903 -1.451830 39.081100 -0.000007 -0.000012 0.176345 -0.528727 18.445200 40.985400 -0.000006 -0.000013 3.063460 11.603100 -71.909700 11.754300 -0.000000 0.000003 -0.000356 0.173423 -9.542540 -2.192510 6.469440 -0.000001 -175.941000 7.119210 -177.694000 -39.081100 -0.002282 -0.040193 0.021818 -0.086239 12.096800 -40.985400 0.000008 0.000006 -1.292740 2.923450 -68.546000 -11.754300 -0.000006 -0.000006 -0.010139 0.272339 -5.508710
0.000000 0.000000 0.000000 0.000000 0.000000 -0.000000 -0.549849 92.932600 0.354459 87.408400 0.961210 1.042960 15.735700 0.000005 -0.000001 67.662400 86.970600 -65.445400 8.984550 -0.406207 -0.000000 -2.110450 -2.493100 4.388180 16.377300 -0.000001 -0.000001 3.418490 1.663090 -0.310364 6.456720 -0.000001 -0.000000 -0.376630 1.983150 -0.783700 12.994200 -0.242716 4.980390 -92.732800 8.051870 -71.181900 5.348090 -0.000007 -0.000001 -73.664300 1.396820 1.239140 24.328600 0.000019 0.000005 11.698700 22.029300 -28.901000 22.291600 -0.000001 0.000005 -0.887824 4.888720 9.602200 12.994500 -0.242716 -4.980390 88.227300 5.260940 -71.348700 -5.348130 -0.000001 -0.000004 -67.166500 -0.628798 -1.588500 -24.328900 0.000322 -0.000009 1.413730 2.606270 -28.506600 -22.291500 -0.000108 -0.000004 7.784900 5.178020 3.262820 -2.192480 -6.469440 -0.000000 -176.549000 0.585001 -1.515400 39.081100 -0.000007 -0.000012 0.177434 -0.531752 18.453100 40.985400 -0.000006 -0.000013 3.015920 11.578100 -71.881200 11.754300 -0.000000 0.000003 -0.000071 0.168815 -9.729720 -2.192510 6.469440 -0.000001 -175.865000 7.153160 -177.729000 -39.081100 -0.002282 -0.040193 0.022142 -0.088240 12.031800 -40.985400 0.000008 0.000006 -1.140150 2.907780 -68.526700 -11.754300 -0.000006 -0.000006 -0.010084 0.271928 -5.525490
0.000000 0.000000 0.000000 0.000000 0.000000 -0.000000 -0.613435 92.926600 0.336797 87.393700 0.950459 1.018710 15.735700 0.000005 -0.000001 67.657900 86.904200 -65.408600 8.984550 -0.406207 -0.000000 -1.986040 -2.544340 4.454280 16.377300 -0.000001 -0.000001 3.067470 1.517530 0.152541 6.456720 -0.000001 -0.000000 -1.134340 1.929620 0.018748 12.994200 -0.242716 4.980390 -92.744700 8.101660 -71.213400 5.348090 -0.000007 -0.000001 -73.349500 -2.286570 1.737980 24.328600 0.000019 0.000005 12.318800 20.626500 -31.795800 22.291600 -0.000001 0.000005 -0.436137 4.885410 9.667520 12.994500 -0.242716 -4.980390 88.241800 5.205230 -71.306600 -5.348130 -0.000001 -0.000004 -67.002700 -4.096990 -0.997422 -24.328900 0.000322 -0.000009 1.737750 2.730500 -32.504100 -22.291500 -0.000108 -0.000004 8.912230 5.161490 3.665590 -2.192480 -6.469440 -0.000000 -176.499000 0.701375 -1.592650 39.081100 -0.000007 -0.000012 0.178577 -0.532446 18.541300 40.985400 -0.000006 -0.000013 2.945370 11.450400 -71.956000 11.754300 -0.000000 0.000003 -0.000221 0.171258 -9.630460 -2.192510 6.469440 -0.000001 -175.789000 7.189480 -177.773000 -39.081100 -0.002282 -0.040193 0.023678 -0.095302 12.049400 -40.985400 0.000008 0.000006 -0.989733 2.920660 -68.569500 -11.754300 -0.000006 -0.000006 -0.010157 0.272474 -5.503180
